<?xml version="1.0" encoding="iso-8859-1"?>
<!-- Generator: Adobe Illustrator 18.1.0, SVG Export Plug-In . SVG Version: 6.00 Build 0)  -->
<svg version="1.1" xmlns="http://www.w3.org/2000/svg" xmlns:xlink="http://www.w3.org/1999/xlink" x="0px" y="0px"
	 viewBox="0 0 139.416 139.416" style="enable-background:new 0 0 139.416 139.416;" xml:space="preserve">
<g id="general_warning">
	<path d="M133.916,139.416H5.5c-3.033,0-5.5-2.468-5.5-5.5V5.5C0,2.467,2.467,0,5.5,0h128.416c3.032,0,5.5,2.467,5.5,5.5v128.416
		C139.416,136.948,136.948,139.416,133.916,139.416z M5.5,5C5.224,5,5,5.224,5,5.5v128.416c0,0.275,0.224,0.5,0.5,0.5h128.416
		c0.275,0,0.5-0.225,0.5-0.5V5.5c0-0.276-0.225-0.5-0.5-0.5H5.5z"/>
	<rect x="64.208" y="-3.039" transform="matrix(0.7072 0.707 -0.707 0.7072 70.3202 -27.3742)" width="8" height="148.493"/>
	<rect x="-6.038" y="67.207" transform="matrix(0.7071 0.7071 -0.7071 0.7071 70.3283 -27.3741)" width="148.492" height="8.001"/>
</g>
<g id="Layer_1">
</g>
</svg>
