<?xml version="1.0" encoding="iso-8859-1"?>
<!-- Generator: Adobe Illustrator 18.1.0, SVG Export Plug-In . SVG Version: 6.00 Build 0)  -->
<svg version="1.1" xmlns="http://www.w3.org/2000/svg" xmlns:xlink="http://www.w3.org/1999/xlink" x="0px" y="0px"
	 viewBox="0 0 139.416 139.416" style="enable-background:new 0 0 139.416 139.416;" xml:space="preserve">
<g id="high_water">
	<path d="M133.916,139.416H5.5c-3.033,0-5.5-2.468-5.5-5.5V5.5C0,2.467,2.467,0,5.5,0h128.416c3.032,0,5.5,2.467,5.5,5.5v128.416
		C139.416,136.948,136.948,139.416,133.916,139.416z M5.5,5C5.224,5,5,5.224,5,5.5v128.416c0,0.275,0.224,0.5,0.5,0.5h128.416
		c0.275,0,0.5-0.225,0.5-0.5V5.5c0-0.276-0.225-0.5-0.5-0.5H5.5z"/>
	<g>
		<path d="M28.53,39.838c-9.268,0-16.808-7.54-16.808-16.808h6c0,5.959,4.848,10.808,10.808,10.808s10.808-4.848,10.808-10.808h6
			C45.338,32.298,37.798,39.838,28.53,39.838z"/>
		<path d="M56.146,39.838c-9.268,0-16.808-7.54-16.808-16.808h6c0,5.959,4.848,10.808,10.808,10.808s10.808-4.848,10.808-10.808h6
			C72.954,32.298,65.413,39.838,56.146,39.838z"/>
		<path d="M83.76,39.838c-9.268,0-16.807-7.54-16.807-16.808h6c0,5.959,4.849,10.808,10.808,10.808s10.808-4.848,10.808-10.808h6
			C100.568,32.298,93.028,39.838,83.76,39.838z"/>
		<path d="M111.376,39.838c-9.269,0-16.809-7.54-16.809-16.808h6c0,5.959,4.849,10.808,10.809,10.808
			c5.959,0,10.808-4.848,10.808-10.808h6C128.184,32.298,120.644,39.838,111.376,39.838z"/>
	</g>
	<g>
		<polygon points="31.001,85.08 69.708,43.933 108.414,85.08 		"/>
		<rect x="54.541" y="74.972" width="30.333" height="51"/>
	</g>
</g>
<g id="Layer_1">
</g>
</svg>
