<?xml version="1.0" encoding="iso-8859-1"?>
<!-- Generator: Adobe Illustrator 18.1.0, SVG Export Plug-In . SVG Version: 6.00 Build 0)  -->
<svg version="1.1" xmlns="http://www.w3.org/2000/svg" xmlns:xlink="http://www.w3.org/1999/xlink" x="0px" y="0px"
	 viewBox="0 0 139.416 139.416" style="enable-background:new 0 0 139.416 139.416;" xml:space="preserve">
<g id="landslide">
	<path d="M133.916,139.416H5.5c-3.033,0-5.5-2.468-5.5-5.5V5.5C0,2.467,2.467,0,5.5,0h128.416c3.032,0,5.5,2.467,5.5,5.5v128.416
		C139.416,136.948,136.948,139.416,133.916,139.416z M5.5,5C5.224,5,5,5.224,5,5.5v128.416c0,0.275,0.224,0.5,0.5,0.5h128.416
		c0.275,0,0.5-0.225,0.5-0.5V5.5c0-0.276-0.225-0.5-0.5-0.5H5.5z"/>
	<polygon points="11.374,118.374 107.374,118.374 66.708,25.041 36.374,87.041 28.041,78.374 	"/>
	<polygon points="116.208,69.708 100.541,74.708 100.541,89.041 113.208,95.374 123.541,86.041 	"/>
	<polygon points="98.791,59.347 91.124,61.347 94.958,69.347 101.791,64.347 	"/>
	<rect x="74.922" y="43.04" transform="matrix(0.4105 0.9118 -0.9118 0.4105 91.6197 -52.6461)" width="23.214" height="3.001"/>
	<rect x="87.106" y="48.278" transform="matrix(0.4165 0.9091 -0.9091 0.4165 105.4352 -64.7157)" width="32.052" height="2.999"/>
</g>
<g id="Layer_1">
</g>
</svg>
