<?xml version="1.0" encoding="iso-8859-1"?>
<!-- Generator: Adobe Illustrator 18.1.0, SVG Export Plug-In . SVG Version: 6.00 Build 0)  -->
<svg version="1.1" xmlns="http://www.w3.org/2000/svg" xmlns:xlink="http://www.w3.org/1999/xlink" x="0px" y="0px"
	 viewBox="0 0 139.416 139.416" style="enable-background:new 0 0 139.416 139.416;" xml:space="preserve">
<g id="tornado">
	<path d="M133.916,139.416H5.5c-3.033,0-5.5-2.468-5.5-5.5V5.5C0,2.467,2.467,0,5.5,0h128.416c3.032,0,5.5,2.467,5.5,5.5v128.416
		C139.416,136.948,136.948,139.416,133.916,139.416z M5.5,5C5.224,5,5,5.224,5,5.5v128.416c0,0.275,0.224,0.5,0.5,0.5h128.416
		c0.275,0,0.5-0.225,0.5-0.5V5.5c0-0.276-0.225-0.5-0.5-0.5H5.5z"/>
	<path d="M68.005,51.39c-5.118,0-50-0.424-50-15.125s44.882-15.125,50-15.125s50,0.424,50,15.125S73.123,51.39,68.005,51.39z
		 M26.275,36.265c2.848,2.77,17.918,7.125,41.729,7.125s38.882-4.355,41.73-7.125c-2.848-2.77-17.919-7.125-41.73-7.125
		S29.123,33.495,26.275,36.265z"/>
	<path d="M32.479,125.072l5.044-7.522c0.707-1.062,17.202-26.364-0.475-45.097C19.529,53.887,18.07,37.269,18.017,36.57l7.975-0.632
		c0.013,0.145,1.439,14.667,16.875,31.024c14.133,14.977,11.144,34.27,5.658,46.944c12.544-3.508,36.39-12.638,50.351-33.662
		c11.446-17.238,11.135-43.645,11.131-43.91l7.998-0.143c0.021,1.181,0.379,29.136-12.465,48.479
		c-21.486,32.358-62.373,38.804-64.103,39.062L32.479,125.072z"/>
	<path d="M23.115,41.627c0,0,19.83,27.57,22.68,36.394c2.851,8.824,0.189,38.825-4.949,41.756s48.484-19.598,56.026-30.288
		c7.542-10.69,17.792-44.779,16.978-47.862c-0.814-3.083-23.892,6.195-44.142,5.763"/>
</g>
<g id="Layer_1">
</g>
</svg>
