<?xml version="1.0" encoding="iso-8859-1"?>
<!-- Generator: Adobe Illustrator 18.1.0, SVG Export Plug-In . SVG Version: 6.00 Build 0)  -->
<svg version="1.1" id="Layer_1" xmlns="http://www.w3.org/2000/svg" xmlns:xlink="http://www.w3.org/1999/xlink" x="0px" y="0px"
	 viewBox="0 0 140 140" style="enable-background:new 0 0 140 140;" xml:space="preserve">
<path style="fill:#231F20;" d="M134.208,139.708H5.792c-3.033,0-5.5-2.468-5.5-5.5V5.792c0-3.033,2.467-5.5,5.5-5.5h128.416
	c3.032,0,5.5,2.467,5.5,5.5v128.416C139.708,137.24,137.24,139.708,134.208,139.708z M5.792,5.292c-0.276,0-0.5,0.224-0.5,0.5
	v128.416c0,0.275,0.224,0.5,0.5,0.5h128.416c0.275,0,0.5-0.225,0.5-0.5V5.792c0-0.276-0.225-0.5-0.5-0.5H5.792z"/>
<path style="fill:#231F20;" d="M124.009,68.98H67.147c-15.637,0-28.359-12.722-28.359-28.359S51.51,12.261,67.147,12.261
	s28.359,12.722,28.359,28.359h-7c0-11.778-9.582-21.359-21.359-21.359c-11.778,0-21.359,9.582-21.359,21.359
	S55.369,61.98,67.147,61.98h56.862V68.98z"/>
<path style="fill:#231F20;" d="M41.712,128.528C27.535,128.528,16,116.993,16,102.815s11.535-25.712,25.712-25.712h82.296v7H41.712
	C31.395,84.104,23,92.498,23,102.815c0,10.318,8.395,18.713,18.712,18.713s18.712-8.395,18.712-18.713h7
	C67.424,116.993,55.89,128.528,41.712,128.528z"/>
</svg>
