<?xml version="1.0" encoding="iso-8859-1"?>
<!-- Generator: Adobe Illustrator 18.1.0, SVG Export Plug-In . SVG Version: 6.00 Build 0)  -->
<svg version="1.1" xmlns="http://www.w3.org/2000/svg" xmlns:xlink="http://www.w3.org/1999/xlink" x="0px" y="0px"
	 viewBox="0 0 139.416 139.416" style="enable-background:new 0 0 139.416 139.416;" xml:space="preserve">
<g id="pass_closed">
	<path style="fill:#FFFFFF;" d="M133.916,139.416H5.5c-3.033,0-5.5-2.468-5.5-5.5V5.5C0,2.467,2.467,0,5.5,0h128.416
		c3.032,0,5.5,2.467,5.5,5.5v128.416C139.416,136.948,136.948,139.416,133.916,139.416z M5.5,5C5.224,5,5,5.224,5,5.5v128.416
		c0,0.275,0.224,0.5,0.5,0.5h128.416c0.275,0,0.5-0.225,0.5-0.5V5.5c0-0.276-0.225-0.5-0.5-0.5H5.5z"/>
	<path style="fill:#FFFFFF;" d="M124.708,111.458h-110l11.25-59.75l6.5,7.75l5.75-21.5c0,0,18.75,28.5,31.5,28.5
		s31.5-28.5,31.5-28.5L124.708,111.458z"/>
	<g>
		
			<rect x="51.673" y="35.438" transform="matrix(0.6931 0.7208 -0.7208 0.6931 49.8215 -38.1443)" style="fill:#FFFFFF;" width="36.069" height="8"/>
		
			<rect x="65.707" y="21.403" transform="matrix(0.7208 0.6931 -0.6931 0.7208 46.7956 -37.3052)" style="fill:#FFFFFF;" width="8" height="36.069"/>
	</g>
</g>
<g id="Layer_1">
</g>
</svg>
