<?xml version="1.0" encoding="iso-8859-1"?>
<!-- Generator: Adobe Illustrator 18.1.0, SVG Export Plug-In . SVG Version: 6.00 Build 0)  -->
<svg version="1.1" xmlns="http://www.w3.org/2000/svg" xmlns:xlink="http://www.w3.org/1999/xlink" x="0px" y="0px"
	 viewBox="0 0 139.416 139.416" style="enable-background:new 0 0 139.416 139.416;" xml:space="preserve">
<g id="rain_cloud">
	<path style="fill:#FFFFFF;" d="M133.916,139.416H5.5c-3.033,0-5.5-2.468-5.5-5.5V5.5C0,2.467,2.467,0,5.5,0h128.416
		c3.032,0,5.5,2.467,5.5,5.5v128.416C139.416,136.948,136.948,139.416,133.916,139.416z M5.5,5C5.224,5,5,5.224,5,5.5v128.416
		c0,0.275,0.224,0.5,0.5,0.5h128.416c0.275,0,0.5-0.225,0.5-0.5V5.5c0-0.276-0.225-0.5-0.5-0.5H5.5z"/>
	<path style="fill:#FFFFFF;" d="M38.208,63.958c0,0-21.027-42.418,19.5-48.75c32-5,41.5,35,41.5,41.75c0,0,5-13.75,18.75-9.785
		c11.073,3.193,16.25,24.785,0,32.285H17.708c0,0-9.75-12,0-18.5S38.208,63.958,38.208,63.958z"/>
	<g>
		
			<rect x="40.811" y="88.383" transform="matrix(0.8776 0.4795 -0.4795 0.8776 55.8678 -8.109)" style="fill:#FFFFFF;" width="6" height="33.899"/>
		
			<rect x="62.28" y="88.383" transform="matrix(0.8776 0.4795 -0.4795 0.8776 58.4965 -18.4027)" style="fill:#FFFFFF;" width="6" height="33.899"/>
		
			<rect x="84.782" y="88.383" transform="matrix(0.8776 0.4795 -0.4795 0.8776 61.2516 -29.1915)" style="fill:#FFFFFF;" width="6" height="33.899"/>
	</g>
</g>
<g id="Layer_1">
</g>
</svg>
