<?xml version="1.0" encoding="iso-8859-1"?>
<!-- Generator: Adobe Illustrator 18.1.0, SVG Export Plug-In . SVG Version: 6.00 Build 0)  -->
<svg version="1.1" xmlns="http://www.w3.org/2000/svg" xmlns:xlink="http://www.w3.org/1999/xlink" x="0px" y="0px"
	 viewBox="0 0 139.416 139.416" style="enable-background:new 0 0 139.416 139.416;" xml:space="preserve">
<g id="snow">
	<path style="fill:#FFFFFF;" d="M133.916,139.416H5.5c-3.033,0-5.5-2.468-5.5-5.5V5.5C0,2.467,2.467,0,5.5,0h128.416
		c3.032,0,5.5,2.467,5.5,5.5v128.416C139.416,136.948,136.948,139.416,133.916,139.416z M5.5,5C5.224,5,5,5.224,5,5.5v128.416
		c0,0.275,0.224,0.5,0.5,0.5h128.416c0.275,0,0.5-0.225,0.5-0.5V5.5c0-0.276-0.225-0.5-0.5-0.5H5.5z"/>
	<g>
		<rect x="65.708" y="19.958" style="fill:#FFFFFF;" width="8" height="99.5"/>
		
			<rect x="65.708" y="19.957" transform="matrix(0.5 0.866 -0.866 0.5 95.2195 -25.5155)" style="fill:#FFFFFF;" width="8" height="99.5"/>
		
			<rect x="19.957" y="65.708" transform="matrix(0.866 0.5 -0.5 0.866 44.1926 -25.5147)" style="fill:#FFFFFF;" width="99.5" height="8"/>
		<g>
			<rect x="38.235" y="54.375" style="fill:#FFFFFF;" width="8" height="30.666"/>
			<rect x="93.18" y="54.375" style="fill:#FFFFFF;" width="8" height="30.666"/>
		</g>
		<g>
			
				<rect x="40.638" y="89.499" transform="matrix(0.866 0.5 -0.5 0.866 54.2481 -15.4591)" style="fill:#FFFFFF;" width="30.666" height="8"/>
			
				<rect x="68.111" y="41.916" transform="matrix(0.866 0.5 -0.5 0.866 34.1377 -35.5707)" style="fill:#FFFFFF;" width="30.666" height="8"/>
		</g>
		<g>
			
				<rect x="51.971" y="30.582" transform="matrix(0.5 0.866 -0.866 0.5 67.7475 -25.5151)" style="fill:#FFFFFF;" width="8" height="30.666"/>
			
				<rect x="79.444" y="78.166" transform="matrix(0.5001 0.866 -0.866 0.5001 122.6847 -25.5182)" style="fill:#FFFFFF;" width="8" height="30.666"/>
		</g>
	</g>
	<g>
		<g>
			
				<rect x="61.06" y="15.525" transform="matrix(0.7071 0.7071 -0.7071 0.7071 33.1921 -41.0821)" style="fill:#FFFFFF;" width="10.253" height="8.001"/>
			
				<rect x="69.229" y="14.399" transform="matrix(0.7071 0.7071 -0.7071 0.7071 35.2576 -46.0635)" style="fill:#FFFFFF;" width="8" height="10.253"/>
		</g>
		<g>
			
				<rect x="68.102" y="115.89" transform="matrix(0.7071 0.7071 -0.7071 0.7071 106.2188 -16.6668)" style="fill:#FFFFFF;" width="10.253" height="7.999"/>
			
				<rect x="62.187" y="114.764" transform="matrix(0.7072 0.707 -0.707 0.7072 104.1494 -11.6892)" style="fill:#FFFFFF;" width="8" height="10.253"/>
		</g>
	</g>
	<g>
		<g>
			
				<rect x="107.407" y="36.441" transform="matrix(0.9659 0.2588 -0.2588 0.9659 14.5543 -27.4175)" style="fill:#FFFFFF;" width="7.999" height="10.253"/>
			
				<rect x="109.8" y="43.666" transform="matrix(0.9659 0.2588 -0.2588 0.9659 16.2526 -28.1208)" style="fill:#FFFFFF;" width="10.254" height="8"/>
		</g>
		<g>
			
				<rect x="24.009" y="92.721" transform="matrix(0.9659 0.2588 -0.2588 0.9659 26.276 -3.9151)" style="fill:#FFFFFF;" width="8" height="10.254"/>
			
				<rect x="19.361" y="87.749" transform="matrix(0.9659 0.2588 -0.2588 0.9659 24.5772 -3.2117)" style="fill:#FFFFFF;" width="10.253" height="7.999"/>
		</g>
	</g>
	<g>
		<g>
			
				<rect x="20.488" y="42.539" transform="matrix(0.2588 0.9659 -0.9659 0.2588 64.1929 11.6767)" style="fill:#FFFFFF;" width="8" height="10.253"/>
			
				<rect x="22.882" y="37.567" transform="matrix(0.2588 0.9659 -0.9659 0.2588 60.9102 3.7538)" style="fill:#FFFFFF;" width="10.253" height="8"/>
		</g>
		<g>
			
				<rect x="110.928" y="86.622" transform="matrix(0.2588 0.9659 -0.9659 0.2588 173.8049 -43.0085)" style="fill:#FFFFFF;" width="7.999" height="10.254"/>
			
				<rect x="106.279" y="93.849" transform="matrix(0.2588 0.9659 -0.9659 0.2588 177.0928 -35.0837)" style="fill:#FFFFFF;" width="10.254" height="7.999"/>
		</g>
	</g>
</g>
<g id="Layer_1">
</g>
</svg>
